<svg width="31" height="31" viewBox="0 0 31 31" fill="none" xmlns="http://www.w3.org/2000/svg">
<path d="M15.5 31C24.0604 31 31 24.0604 31 15.5C31 6.93959 24.0604 0 15.5 0C6.93959 0 0 6.93959 0 15.5C0 24.0604 6.93959 31 15.5 31Z" fill="#00FF19"/>
<path d="M6.52633 15.7349C5.4878 14.6964 4.90436 13.2878 4.90436 11.8191C4.90436 10.3504 5.4878 8.94188 6.52633 7.90334C7.56486 6.86481 8.97341 6.28137 10.4421 6.28137C11.9108 6.28137 13.3194 6.86481 14.3579 7.90334L15.5 9.05524L16.6519 7.90334C17.6904 6.86481 19.099 6.28137 20.5677 6.28137C22.0364 6.28137 23.445 6.86481 24.4835 7.90334C25.522 8.94188 26.1055 10.3504 26.1055 11.8191C26.1055 13.2878 25.522 14.6964 24.4835 15.7349L15.5 24.7184L6.52633 15.7349ZM10.4421 8.40261V8.39282Z" fill="black"/>
</svg>
