<svg width="31" height="31" viewBox="0 0 31 31" fill="none" xmlns="http://www.w3.org/2000/svg">
<path d="M15.5 31C24.0604 31 31 24.0604 31 15.5C31 6.93959 24.0604 0 15.5 0C6.93959 0 0 6.93959 0 15.5C0 24.0604 6.93959 31 15.5 31Z" fill="#00FF19"/>
<path d="M15.5 31C24.0604 31 31 24.0604 31 15.5C31 6.93959 24.0604 0 15.5 0C6.93959 0 0 6.93959 0 15.5C0 24.0604 6.93959 31 15.5 31Z" stroke="white"/>
<path d="M12.0504 13.8622C12.1267 13.8124 12.2157 13.779 12.3104 13.7659L12.3996 13.7656C12.4822 13.7653 12.563 13.781 12.6372 13.8108C12.7113 13.8406 12.776 13.8833 12.8285 13.9346L12.8301 13.9362L14.4532 15.5161L15.4995 16.5345L16.5458 15.5161L18.1689 13.9362L18.2026 13.9033L18.2343 13.8684C18.2861 13.8112 18.3517 13.7625 18.4283 13.7274C18.5051 13.6922 18.5901 13.6721 18.6778 13.6694C18.7655 13.6667 18.852 13.6816 18.9315 13.7123C19.011 13.7429 19.0804 13.788 19.1366 13.8427C19.1926 13.8972 19.2342 13.96 19.261 14.0259C19.2878 14.0917 19.2999 14.1607 19.2977 14.2291C19.2955 14.2975 19.2789 14.366 19.2476 14.4308C19.2163 14.4957 19.1701 14.5566 19.1099 14.6084L19.0742 14.639L19.0405 14.6717L15.4995 18.1185L11.9606 14.6738C11.9603 14.6735 11.9601 14.6733 11.9598 14.673C11.8796 14.5944 11.8297 14.4993 11.8099 14.4021C11.7901 14.3048 11.8 14.2035 11.84 14.1092C11.8803 14.0145 11.9513 13.9269 12.0504 13.8622ZM7.5 14.304C7.5 15.5913 8.02572 16.8174 8.94782 17.715C8.94785 17.715 8.94788 17.7151 8.94791 17.7151L14.4531 23.0748L15.4994 24.0934L16.5458 23.0749L22.0521 17.7151C22.5084 17.2709 22.8726 16.7414 23.1219 16.1557C23.3711 15.5699 23.5 14.9405 23.5 14.304C23.5 13.6674 23.3711 13.0381 23.1219 12.4523C22.8726 11.8665 22.5084 11.337 22.0521 10.8928C21.5958 10.4487 21.0564 10.0985 20.4655 9.86032C19.8747 9.62212 19.2429 9.5 18.6057 9.5C17.9685 9.5 17.3366 9.62212 16.7458 9.86032C16.2961 10.0416 15.8762 10.2878 15.5 10.5909C14.625 9.88575 13.5271 9.5 12.3943 9.5C11.1091 9.5 9.86869 9.99657 8.94791 10.8928C8.02576 11.7905 7.5 13.0166 7.5 14.304Z" fill="black" stroke="black" stroke-width="3"/>
</svg>
