<svg width="31" height="31" viewBox="0 0 31 31" fill="none" xmlns="http://www.w3.org/2000/svg">
<path d="M15.5 31C24.0604 31 31 24.0604 31 15.5C31 6.93959 24.0604 0 15.5 0C6.93959 0 0 6.93959 0 15.5C0 24.0604 6.93959 31 15.5 31Z" fill="#00FF19"/>
<path d="M6.51815 15.7349C5.47962 14.6964 4.89618 13.2878 4.89618 11.8191C4.89618 10.3504 5.47962 8.94188 6.51815 7.90334C7.55668 6.86481 8.96524 6.28137 10.4339 6.28137C11.9026 6.28137 13.3112 6.86481 14.3497 7.90334L15.5 9.05524L16.6519 7.90334C17.1661 7.38912 17.7766 6.98121 18.4485 6.70291C19.1203 6.42461 19.8405 6.28137 20.5677 6.28137C21.2949 6.28137 22.015 6.42461 22.6869 6.70291C23.3588 6.98121 23.9692 7.38912 24.4835 7.90334C24.9977 8.41757 25.4056 9.02805 25.6839 9.69992C25.9622 10.3718 26.1054 11.0919 26.1054 11.8191C26.1054 12.5464 25.9622 13.2665 25.6839 13.9383C25.4056 14.6102 24.9977 15.2207 24.4835 15.7349L15.5 24.7184L6.51815 15.7349ZM10.4339 8.39282C9.75767 8.3947 9.09707 8.59667 8.53537 8.97328C7.97366 9.3499 7.53597 9.88432 7.27742 10.5092C7.01888 11.1341 6.95104 11.8216 7.08246 12.485C7.21388 13.1483 7.53868 13.758 8.01594 14.2371L15.5 21.7212L22.984 14.2371C23.3351 13.9276 23.619 13.5494 23.8183 13.1259C24.0176 12.7024 24.128 12.2425 24.1427 11.7747C24.1573 11.3069 24.076 10.841 23.9037 10.4058C23.7314 9.97062 23.4718 9.57535 23.1408 9.24439C22.8098 8.91343 22.4146 8.65378 21.9794 8.48147C21.5442 8.30916 21.0783 8.22785 20.6105 8.24253C20.1427 8.25722 19.6828 8.3676 19.2593 8.56687C18.8358 8.76614 18.4576 9.05006 18.148 9.40113L15.5 12.0492L12.8519 9.40113C12.5349 9.08314 12.158 8.83116 11.7429 8.65977C11.3279 8.48837 10.883 8.40097 10.4339 8.40261V8.39282Z" fill="black"/>
<mask id="path-3-inside-1" fill="white">
<path d="M20.5661 6.44478C21.6289 6.44491 22.6679 6.76019 23.5516 7.35075C24.4353 7.94131 25.124 8.78063 25.5307 9.76259C25.9375 10.7446 26.0439 11.8251 25.8366 12.8675C25.6292 13.91 25.1175 14.8675 24.366 15.6191L23.0999 16.8869L15.5 24.4851L7.90011 16.8869L6.63401 15.6208C5.62598 14.613 5.05959 13.246 5.05944 11.8206C5.05929 10.3952 5.62538 9.02809 6.63319 8.02007C7.641 7.01204 9.00797 6.44565 10.4334 6.4455C11.8588 6.44535 13.2259 7.01144 14.2339 8.01925L15.5 9.28536L16.7661 8.01925C17.2647 7.51959 17.857 7.1233 18.5091 6.85311C19.1612 6.58292 19.8602 6.44415 20.5661 6.44478ZM15.5082 21.9448L20.5742 16.8869L23.1081 14.3547C23.4567 14.0248 23.7356 13.6283 23.9284 13.1886C24.1211 12.749 24.2237 12.2752 24.2301 11.7953C24.2364 11.3153 24.1465 10.8389 23.9656 10.3943C23.7846 9.94975 23.5163 9.54597 23.1766 9.20689C22.8369 8.8678 22.4326 8.6003 21.9876 8.42021C21.5427 8.24012 21.0661 8.1511 20.5862 8.15842C20.1062 8.16574 19.6326 8.26924 19.1934 8.46281C18.7542 8.65637 18.3582 8.93607 18.029 9.28536L15.5 11.8192L12.9711 9.28536C12.2876 8.6731 11.3956 8.34583 10.4784 8.37079C9.5611 8.39575 8.68824 8.77104 8.03909 9.41957C7.38994 10.0681 7.0138 10.9406 6.98795 11.8578C6.96211 12.7751 7.28851 13.6674 7.90011 14.3514L10.434 16.8869L15.5 21.9448H15.5082ZM20.5661 6.11846C19.8173 6.11637 19.0756 6.26282 18.3839 6.54932C17.6921 6.83582 17.0641 7.25669 16.5361 7.78757L15.5 8.82362L14.464 7.78757C13.3912 6.73666 11.947 6.15151 10.4453 6.15925C8.94356 6.16698 7.50554 6.76698 6.44363 7.82888C5.38173 8.89078 4.78174 10.3288 4.774 11.8305C4.76627 13.3323 5.35141 14.7764 6.40232 15.8492L7.67006 17.1153L15.27 24.7185L15.5 24.9485L15.7301 24.7185L23.33 17.1186L24.5961 15.8525C25.3948 15.0557 25.9391 14.0398 26.16 12.9334C26.3809 11.827 26.2684 10.6799 25.8369 9.63751C25.4053 8.5951 24.674 7.70423 23.7357 7.07777C22.7974 6.45131 21.6943 6.11744 20.5661 6.11846ZM15.5082 21.4896L10.664 16.6552L8.13179 14.1214C7.58472 13.4986 7.29513 12.6911 7.32181 11.8626C7.3485 11.0341 7.68946 10.2469 8.27547 9.66066C8.86148 9.07444 9.64862 8.7332 10.4771 8.70623C11.3055 8.67925 12.1132 8.96856 12.7361 9.51541L15.27 12.0492L15.5 12.2809L15.7301 12.0492L18.2639 9.51541C18.8868 8.96856 19.6945 8.67925 20.5229 8.70623C21.3514 8.7332 22.1385 9.07444 22.7245 9.66066C23.3106 10.2469 23.6515 11.0341 23.6782 11.8626C23.7049 12.6911 23.4153 13.4986 22.8682 14.1214L20.336 16.6536L15.5 21.4896H15.5082Z"/>
</mask>
<path d="M20.5661 6.44478C21.6289 6.44491 22.6679 6.76019 23.5516 7.35075C24.4353 7.94131 25.124 8.78063 25.5307 9.76259C25.9375 10.7446 26.0439 11.8251 25.8366 12.8675C25.6292 13.91 25.1175 14.8675 24.366 15.6191L23.0999 16.8869L15.5 24.4851L7.90011 16.8869L6.63401 15.6208C5.62598 14.613 5.05959 13.246 5.05944 11.8206C5.05929 10.3952 5.62538 9.02809 6.63319 8.02007C7.641 7.01204 9.00797 6.44565 10.4334 6.4455C11.8588 6.44535 13.2259 7.01144 14.2339 8.01925L15.5 9.28536L16.7661 8.01925C17.2647 7.51959 17.857 7.1233 18.5091 6.85311C19.1612 6.58292 19.8602 6.44415 20.5661 6.44478ZM15.5082 21.9448L20.5742 16.8869L23.1081 14.3547C23.4567 14.0248 23.7356 13.6283 23.9284 13.1886C24.1211 12.749 24.2237 12.2752 24.2301 11.7953C24.2364 11.3153 24.1465 10.8389 23.9656 10.3943C23.7846 9.94975 23.5163 9.54597 23.1766 9.20689C22.8369 8.8678 22.4326 8.6003 21.9876 8.42021C21.5427 8.24012 21.0661 8.1511 20.5862 8.15842C20.1062 8.16574 19.6326 8.26924 19.1934 8.46281C18.7542 8.65637 18.3582 8.93607 18.029 9.28536L15.5 11.8192L12.9711 9.28536C12.2876 8.6731 11.3956 8.34583 10.4784 8.37079C9.5611 8.39575 8.68824 8.77104 8.03909 9.41957C7.38994 10.0681 7.0138 10.9406 6.98795 11.8578C6.96211 12.7751 7.28851 13.6674 7.90011 14.3514L10.434 16.8869L15.5 21.9448H15.5082ZM20.5661 6.11846C19.8173 6.11637 19.0756 6.26282 18.3839 6.54932C17.6921 6.83582 17.0641 7.25669 16.5361 7.78757L15.5 8.82362L14.464 7.78757C13.3912 6.73666 11.947 6.15151 10.4453 6.15925C8.94356 6.16698 7.50554 6.76698 6.44363 7.82888C5.38173 8.89078 4.78174 10.3288 4.774 11.8305C4.76627 13.3323 5.35141 14.7764 6.40232 15.8492L7.67006 17.1153L15.27 24.7185L15.5 24.9485L15.7301 24.7185L23.33 17.1186L24.5961 15.8525C25.3948 15.0557 25.9391 14.0398 26.16 12.9334C26.3809 11.827 26.2684 10.6799 25.8369 9.63751C25.4053 8.5951 24.674 7.70423 23.7357 7.07777C22.7974 6.45131 21.6943 6.11744 20.5661 6.11846ZM15.5082 21.4896L10.664 16.6552L8.13179 14.1214C7.58472 13.4986 7.29513 12.6911 7.32181 11.8626C7.3485 11.0341 7.68946 10.2469 8.27547 9.66066C8.86148 9.07444 9.64862 8.7332 10.4771 8.70623C11.3055 8.67925 12.1132 8.96856 12.7361 9.51541L15.27 12.0492L15.5 12.2809L15.7301 12.0492L18.2639 9.51541C18.8868 8.96856 19.6945 8.67925 20.5229 8.70623C21.3514 8.7332 22.1385 9.07444 22.7245 9.66066C23.3106 10.2469 23.6515 11.0341 23.6782 11.8626C23.7049 12.6911 23.4153 13.4986 22.8682 14.1214L20.336 16.6536L15.5 21.4896H15.5082Z" fill="black"/>
<path d="M24.366 15.6191L20.8302 12.0839L20.8282 12.0859L24.366 15.6191ZM23.0999 16.8869L26.6351 20.4228L26.6377 20.4201L23.0999 16.8869ZM15.5 24.4851L11.9649 28.0211L15.5 31.5555L19.0352 28.0211L15.5 24.4851ZM7.90011 16.8869L4.36457 20.4224L4.36496 20.4228L7.90011 16.8869ZM6.63401 15.6208L10.1695 12.0852L10.1692 12.0849L6.63401 15.6208ZM14.2339 8.01925L17.7694 4.48372L17.7691 4.48334L14.2339 8.01925ZM15.5 9.28536L11.9645 12.8209L15.5 16.3564L19.0355 12.8209L15.5 9.28536ZM16.7661 8.01925L20.3016 11.5548L20.3055 11.5509L16.7661 8.01925ZM15.5082 21.9448V26.9448H17.5769L19.0408 25.4832L15.5082 21.9448ZM20.5742 16.8869L24.1069 20.4253L24.1086 20.4236L20.5742 16.8869ZM23.1081 14.3547L19.6714 10.7229L19.6219 10.7698L19.5737 10.818L23.1081 14.3547ZM18.029 9.28536L21.5679 12.8175L21.6183 12.7669L21.6673 12.715L18.029 9.28536ZM15.5 11.8192L11.9611 15.3513L15.5 18.8971L19.039 15.3513L15.5 11.8192ZM12.9711 9.28536L16.51 5.75324L16.4113 5.65437L16.3073 5.56116L12.9711 9.28536ZM7.90011 14.3514L4.1727 17.684L4.26526 17.7876L4.36344 17.8858L7.90011 14.3514ZM10.434 16.8869L6.89728 20.4213L6.90127 20.4253L10.434 16.8869ZM15.5 21.9448L11.9673 25.4832L13.4313 26.9448H15.5V21.9448ZM16.5361 7.78757L20.0716 11.3231L20.0812 11.3135L16.5361 7.78757ZM15.5 8.82362L11.9645 12.3592L15.5 15.8947L19.0355 12.3592L15.5 8.82362ZM14.464 7.78757L17.9995 4.25203L17.9813 4.23382L17.9629 4.2158L14.464 7.78757ZM6.40232 15.8492L2.83055 19.3481L2.8497 19.3677L2.86906 19.387L6.40232 15.8492ZM7.67006 17.1153L11.2064 13.5805L11.2033 13.5775L7.67006 17.1153ZM15.27 24.7185L11.7337 28.2532L11.7344 28.254L15.27 24.7185ZM15.5 24.9485L11.9645 28.484L15.5 32.0196L19.0355 28.484L15.5 24.9485ZM23.33 17.1186L26.8655 20.6541H26.8655L23.33 17.1186ZM24.5961 15.8525L21.0649 12.3125L21.0605 12.3169L24.5961 15.8525ZM15.5082 21.4896V26.4896H27.5965L19.0401 17.9505L15.5082 21.4896ZM10.664 16.6552L7.12733 20.1896L7.13205 20.1943L10.664 16.6552ZM8.13179 14.1214L4.37549 17.4214L4.48154 17.5421L4.59512 17.6558L8.13179 14.1214ZM12.7361 9.51541L16.2716 5.97987L16.1568 5.86506L16.0348 5.75793L12.7361 9.51541ZM15.27 12.0492L18.818 8.52622L18.8117 8.51996L18.8055 8.51372L15.27 12.0492ZM15.5 12.2809L11.952 15.804L15.5 19.3771L19.048 15.804L15.5 12.2809ZM15.7301 12.0492L12.1945 8.51372L12.1883 8.51996L12.1821 8.52622L15.7301 12.0492ZM18.2639 9.51541L14.9652 5.75793L14.8432 5.86506L14.7284 5.97987L18.2639 9.51541ZM22.8682 14.1214L26.4037 17.6569L26.5179 17.5427L26.6245 17.4214L22.8682 14.1214ZM20.336 16.6536L16.8005 13.118L16.8005 13.118L20.336 16.6536ZM15.5 21.4896L11.9645 17.954L3.42894 26.4896H15.5V21.4896ZM20.5654 11.4448C20.6395 11.4448 20.7118 11.4667 20.7734 11.5079L26.3297 3.1936C24.6239 2.05363 22.6184 1.44504 20.5667 1.44478L20.5654 11.4448ZM20.7734 11.5079C20.835 11.549 20.883 11.6075 20.9113 11.6759L30.1502 7.84926C29.3651 5.95374 28.0355 4.33357 26.3297 3.1936L20.7734 11.5079ZM20.9113 11.6759C20.9396 11.7443 20.947 11.8196 20.9326 11.8922L30.7405 13.8428C31.1407 11.8305 30.9353 9.74477 30.1502 7.84926L20.9113 11.6759ZM20.9326 11.8922C20.9182 11.9649 20.8825 12.0316 20.8302 12.0839L27.9019 19.1544C29.3525 17.7035 30.3403 15.8551 30.7405 13.8428L20.9326 11.8922ZM20.8282 12.0859L19.5621 13.3536L26.6377 20.4201L27.9038 19.1524L20.8282 12.0859ZM19.5647 13.351L11.9649 20.9492L19.0352 28.0211L26.6351 20.4228L19.5647 13.351ZM19.0352 20.9492L11.4353 13.351L4.36496 20.4228L11.9649 28.0211L19.0352 20.9492ZM11.4356 13.3514L10.1695 12.0852L3.09847 19.1563L4.36457 20.4224L11.4356 13.3514ZM10.1692 12.0849C10.0989 12.0146 10.0594 11.9194 10.0594 11.8201L0.0594392 11.8211C0.0597343 14.5726 1.15304 17.2113 3.09885 19.1567L10.1692 12.0849ZM10.0594 11.8201C10.0594 11.7207 10.0989 11.6255 10.1691 11.5552L3.09728 4.48491C1.15189 6.43072 0.059144 9.06963 0.0594392 11.8211L10.0594 11.8201ZM10.1691 11.5552C10.2393 11.485 10.3346 11.4455 10.4339 11.4455L10.4328 1.4455C7.68135 1.44579 5.04267 2.5391 3.09728 4.48491L10.1691 11.5552ZM10.4339 11.4455C10.5332 11.4455 10.6285 11.4849 10.6987 11.5552L17.7691 4.48334C15.8232 2.53795 13.1843 1.4452 10.4328 1.4455L10.4339 11.4455ZM10.6984 11.5548L11.9645 12.8209L19.0355 5.74982L17.7694 4.48372L10.6984 11.5548ZM19.0355 12.8209L20.3016 11.5548L13.2306 4.48372L11.9645 5.74982L19.0355 12.8209ZM20.3055 11.5509C20.3391 11.5172 20.3791 11.4905 20.423 11.4723L16.5952 2.23392C15.3349 2.75608 14.1902 3.52196 13.2267 4.4876L20.3055 11.5509ZM20.423 11.4723C20.467 11.4541 20.5141 11.4447 20.5617 11.4448L20.5705 1.44478C19.2063 1.44358 17.8554 1.71175 16.5952 2.23392L20.423 11.4723ZM19.0408 25.4832L24.1069 20.4253L17.0415 13.3485L11.9755 18.4064L19.0408 25.4832ZM24.1086 20.4236L26.6425 17.8913L19.5737 10.818L17.0398 13.3502L24.1086 20.4236ZM26.5447 17.9864C27.379 17.1969 28.0465 16.2481 28.5077 15.1961L19.3491 11.1812C19.4248 11.0084 19.5344 10.8526 19.6714 10.7229L26.5447 17.9864ZM28.5077 15.1961C28.9688 14.1441 29.2143 13.0103 29.2296 11.8618L19.2305 11.7287C19.233 11.5401 19.2733 11.3539 19.3491 11.1812L28.5077 15.1961ZM29.2296 11.8618C29.2449 10.7133 29.0297 9.57337 28.5967 8.50949L19.3344 12.2792C19.2633 12.1045 19.228 11.9173 19.2305 11.7287L29.2296 11.8618ZM28.5967 8.50949C28.1637 7.4456 27.5217 6.47937 26.7087 5.66794L19.6445 12.7458C19.511 12.6126 19.4055 12.4539 19.3344 12.2792L28.5967 8.50949ZM26.7087 5.66794C25.8957 4.85653 24.9283 4.21641 23.8635 3.78546L20.1117 13.055C19.9369 12.9842 19.778 12.8791 19.6445 12.7458L26.7087 5.66794ZM23.8635 3.78546C22.7988 3.35451 21.6585 3.14149 20.51 3.159L20.6624 13.1578C20.4738 13.1607 20.2865 13.1257 20.1117 13.055L23.8635 3.78546ZM20.51 3.159C19.3615 3.17651 18.2282 3.42419 17.1771 3.88739L21.2097 13.0382C21.0371 13.1143 20.851 13.155 20.6624 13.1578L20.51 3.159ZM17.1771 3.88739C16.126 4.35059 15.1785 5.0199 14.3906 5.85572L21.6673 12.715C21.5379 12.8522 21.3823 12.9622 21.2097 13.0382L17.1771 3.88739ZM14.49 5.75324L11.9611 8.28708L19.039 15.3513L21.5679 12.8175L14.49 5.75324ZM19.039 8.28708L16.51 5.75324L9.43211 12.8175L11.9611 15.3513L19.039 8.28708ZM16.3073 5.56116C14.6718 4.09605 12.5373 3.31291 10.3423 3.37264L10.6144 13.3689C10.2539 13.3787 9.90341 13.2501 9.63484 13.0095L16.3073 5.56116ZM10.3423 3.37264C8.14739 3.43237 6.05865 4.33043 4.50526 5.88233L11.5729 12.9568C11.3178 13.2117 10.9748 13.3591 10.6144 13.3689L10.3423 3.37264ZM4.50526 5.88233C2.95187 7.43422 2.05179 9.52209 1.98994 11.717L11.986 11.9987C11.9758 12.3591 11.828 12.702 11.5729 12.9568L4.50526 5.88233ZM1.98994 11.717C1.92809 13.9119 2.70916 16.0471 4.1727 17.684L11.6275 11.0188C11.8679 11.2876 11.9961 11.6382 11.986 11.9987L1.98994 11.717ZM4.36344 17.8858L6.89728 20.4213L13.9706 13.3525L11.4368 10.817L4.36344 17.8858ZM6.90127 20.4253L11.9673 25.4832L19.0327 18.4064L13.9666 13.3485L6.90127 20.4253ZM15.5 26.9448H15.5082V16.9448H15.5V26.9448ZM20.58 1.11848C19.17 1.11455 17.7733 1.39032 16.4706 1.92985L20.2971 11.1688C20.3779 11.1353 20.4646 11.1182 20.5521 11.1184L20.58 1.11848ZM16.4706 1.92985C15.1679 2.46938 13.9852 3.26194 12.9909 4.26165L20.0812 11.3135C20.1429 11.2514 20.2163 11.2023 20.2971 11.1688L16.4706 1.92985ZM13.0005 4.25203L11.9645 5.28809L19.0355 12.3592L20.0716 11.3231L13.0005 4.25203ZM19.0355 5.28809L17.9995 4.25203L10.9284 11.3231L11.9645 12.3592L19.0355 5.28809ZM17.9629 4.2158C15.9492 2.24316 13.2384 1.14479 10.4195 1.15931L10.4711 11.1592C10.6556 11.1582 10.8332 11.2302 10.965 11.3593L17.9629 4.2158ZM10.4195 1.15931C7.60066 1.17383 4.90137 2.30007 2.9081 4.29334L9.97917 11.3644C10.1097 11.2339 10.2865 11.1601 10.4711 11.1592L10.4195 1.15931ZM2.9081 4.29334C0.914823 6.28662 -0.211412 8.98591 -0.225932 11.8048L9.77394 11.8563C9.77489 11.6717 9.84864 11.4949 9.97917 11.3644L2.9081 4.29334ZM-0.225932 11.8048C-0.240452 14.6237 0.857919 17.3344 2.83055 19.3481L9.97409 12.3503C9.84491 12.2184 9.77298 12.0409 9.77394 11.8563L-0.225932 11.8048ZM2.86906 19.387L4.1368 20.6531L11.2033 13.5775L9.93558 12.3114L2.86906 19.387ZM4.13377 20.6501L11.7337 28.2532L18.8062 21.1837L11.2064 13.5805L4.13377 20.6501ZM11.7344 28.254L11.9645 28.484L19.0355 21.413L18.8055 21.1829L11.7344 28.254ZM19.0355 28.484L19.2656 28.254L12.1945 21.1829L11.9645 21.413L19.0355 28.484ZM19.2656 28.254L26.8655 20.6541L19.7944 13.583L12.1945 21.1829L19.2656 28.254ZM26.8655 20.6541L28.1316 19.388L21.0605 12.3169L19.7944 13.583L26.8655 20.6541ZM28.1272 19.3924C29.6267 17.8966 30.6486 15.9893 31.0632 13.9123L21.2568 11.9544C21.2297 12.0902 21.1629 12.2148 21.0649 12.3125L28.1272 19.3924ZM31.0632 13.9123C31.4779 11.8352 31.2668 9.68185 30.4566 7.72489L21.2171 11.5501C21.2701 11.678 21.2839 11.8187 21.2568 11.9544L31.0632 13.9123ZM30.4566 7.72489C29.6464 5.76793 28.2736 4.09548 26.5121 2.91941L20.9594 11.2361C21.0745 11.313 21.1642 11.4223 21.2171 11.5501L30.4566 7.72489ZM26.5121 2.91941C24.7505 1.74333 22.6796 1.11655 20.5615 1.11846L20.5706 11.1185C20.709 11.1183 20.8443 11.1593 20.9594 11.2361L26.5121 2.91941ZM19.0401 17.9505L14.196 13.1161L7.13205 20.1943L11.9762 25.0287L19.0401 17.9505ZM14.2007 13.1208L11.6685 10.587L4.59512 17.6558L7.12733 20.1896L14.2007 13.1208ZM11.8881 10.8213C12.1793 11.1528 12.3334 11.5826 12.3192 12.0236L2.3244 11.7016C2.25683 13.7995 2.99016 15.8445 4.37549 17.4214L11.8881 10.8213ZM12.3192 12.0236C12.305 12.4645 12.1235 12.8835 11.8116 13.1956L4.73931 6.12576C3.25537 7.61022 2.39197 9.60376 2.3244 11.7016L12.3192 12.0236ZM11.8116 13.1956C11.4997 13.5076 11.0808 13.6892 10.6398 13.7036L10.3143 3.70887C8.21648 3.77719 6.22324 4.6413 4.73931 6.12576L11.8116 13.1956ZM10.6398 13.7036C10.1989 13.7179 9.76897 13.564 9.43742 13.2729L16.0348 5.75793C14.4574 4.37316 12.4122 3.64056 10.3143 3.70887L10.6398 13.7036ZM9.20058 13.0509L11.7344 15.5848L18.8055 8.51372L16.2716 5.97987L9.20058 13.0509ZM11.722 15.5723L11.952 15.804L19.048 8.75791L18.818 8.52622L11.722 15.5723ZM19.048 15.804L19.2781 15.5723L12.1821 8.52622L11.952 8.75791L19.048 15.804ZM19.2656 15.5848L21.7994 13.0509L14.7284 5.97987L12.1945 8.51372L19.2656 15.5848ZM21.5626 13.2729C21.231 13.564 20.8012 13.7179 20.3602 13.7036L20.6857 3.70887C18.5878 3.64056 16.5426 4.37316 14.9652 5.75793L21.5626 13.2729ZM20.3602 13.7036C19.9193 13.6892 19.5003 13.5076 19.1884 13.1956L26.2607 6.12576C24.7768 4.6413 22.7835 3.77719 20.6857 3.70887L20.3602 13.7036ZM19.1884 13.1956C18.8765 12.8835 18.695 12.4645 18.6808 12.0236L28.6756 11.7016C28.608 9.60377 27.7446 7.61022 26.2607 6.12576L19.1884 13.1956ZM18.6808 12.0236C18.6666 11.5826 18.8207 11.1528 19.1119 10.8213L26.6245 17.4214C28.0099 15.8445 28.7432 13.7995 28.6756 11.7016L18.6808 12.0236ZM19.3327 10.5858L16.8005 13.118L23.8715 20.1891L26.4037 17.6569L19.3327 10.5858ZM16.8005 13.118L11.9645 17.954L19.0355 25.0251L23.8715 20.1891L16.8005 13.118ZM15.5 26.4896H15.5082V16.4896H15.5V26.4896Z" fill="black" mask="url(#path-3-inside-1)"/>
</svg>
